<mxfile host="app.diagrams.net" modified="2021-10-21T06:16:55.938Z" agent="5.0 (Macintosh; Intel Mac OS X 10_15_7) AppleWebKit/537.36 (KHTML, like Gecko) Chrome/94.0.4606.81 Safari/537.36" etag="XcKkVD_f-zNYFu7BgAT-" version="15.5.5" type="github">
  <diagram id="ZC6UTpJWTf3sHp2e_V9B" name="Page-1">
    <mxGraphModel dx="1577" dy="1023" grid="1" gridSize="10" guides="1" tooltips="1" connect="1" arrows="1" fold="1" page="1" pageScale="1" pageWidth="827" pageHeight="1169" math="0" shadow="0">
      <root>
        <mxCell id="0" />
        <mxCell id="1" parent="0" />
        <mxCell id="-hnnluYrL1UjxudkI0mQ-4" style="edgeStyle=orthogonalEdgeStyle;rounded=0;orthogonalLoop=1;jettySize=auto;html=1;exitX=0.5;exitY=1;exitDx=0;exitDy=0;endArrow=blockThin;endFill=1;" parent="1" source="-hnnluYrL1UjxudkI0mQ-1" target="-hnnluYrL1UjxudkI0mQ-3" edge="1">
          <mxGeometry relative="1" as="geometry" />
        </mxCell>
        <mxCell id="-hnnluYrL1UjxudkI0mQ-1" value="Data set of&amp;nbsp;Task 1" style="rounded=0;whiteSpace=wrap;html=1;" parent="1" vertex="1">
          <mxGeometry x="200" y="40" width="120" height="40" as="geometry" />
        </mxCell>
        <mxCell id="-hnnluYrL1UjxudkI0mQ-5" style="edgeStyle=orthogonalEdgeStyle;rounded=0;orthogonalLoop=1;jettySize=auto;html=1;exitX=0.5;exitY=1;exitDx=0;exitDy=0;endArrow=blockThin;endFill=1;entryX=0.5;entryY=0;entryDx=0;entryDy=0;" parent="1" source="-hnnluYrL1UjxudkI0mQ-2" edge="1" target="-hnnluYrL1UjxudkI0mQ-3">
          <mxGeometry relative="1" as="geometry">
            <mxPoint x="470" y="120" as="targetPoint" />
          </mxGeometry>
        </mxCell>
        <mxCell id="-hnnluYrL1UjxudkI0mQ-2" value="Data set of&amp;nbsp;Task 2" style="rounded=0;whiteSpace=wrap;html=1;" parent="1" vertex="1">
          <mxGeometry x="440" y="40" width="120" height="40" as="geometry" />
        </mxCell>
        <mxCell id="kEBG433Z0BsSJDvUKMlg-3" style="edgeStyle=orthogonalEdgeStyle;rounded=0;orthogonalLoop=1;jettySize=auto;html=1;exitX=0.5;exitY=1;exitDx=0;exitDy=0;entryX=0.5;entryY=0;entryDx=0;entryDy=0;" edge="1" parent="1" source="-hnnluYrL1UjxudkI0mQ-3" target="kEBG433Z0BsSJDvUKMlg-1">
          <mxGeometry relative="1" as="geometry" />
        </mxCell>
        <mxCell id="kEBG433Z0BsSJDvUKMlg-4" style="edgeStyle=orthogonalEdgeStyle;rounded=0;orthogonalLoop=1;jettySize=auto;html=1;exitX=0.5;exitY=1;exitDx=0;exitDy=0;entryX=0.5;entryY=0;entryDx=0;entryDy=0;" edge="1" parent="1" source="-hnnluYrL1UjxudkI0mQ-3" target="kEBG433Z0BsSJDvUKMlg-7">
          <mxGeometry relative="1" as="geometry">
            <mxPoint x="500" y="240" as="targetPoint" />
          </mxGeometry>
        </mxCell>
        <mxCell id="-hnnluYrL1UjxudkI0mQ-3" value="Experimental data preprocessing" style="rounded=0;whiteSpace=wrap;html=1;" parent="1" vertex="1">
          <mxGeometry x="320" y="130" width="120" height="40" as="geometry" />
        </mxCell>
        <mxCell id="kEBG433Z0BsSJDvUKMlg-10" style="edgeStyle=orthogonalEdgeStyle;rounded=0;orthogonalLoop=1;jettySize=auto;html=1;exitX=0.5;exitY=1;exitDx=0;exitDy=0;" edge="1" parent="1" source="kEBG433Z0BsSJDvUKMlg-1" target="kEBG433Z0BsSJDvUKMlg-8">
          <mxGeometry relative="1" as="geometry" />
        </mxCell>
        <mxCell id="kEBG433Z0BsSJDvUKMlg-1" value="&amp;nbsp;Pre-training&amp;nbsp; and&amp;nbsp; extracting feature&amp;nbsp;" style="rounded=0;whiteSpace=wrap;html=1;" vertex="1" parent="1">
          <mxGeometry x="200" y="250" width="120" height="40" as="geometry" />
        </mxCell>
        <mxCell id="kEBG433Z0BsSJDvUKMlg-11" style="edgeStyle=orthogonalEdgeStyle;rounded=0;orthogonalLoop=1;jettySize=auto;html=1;exitX=0.5;exitY=1;exitDx=0;exitDy=0;" edge="1" parent="1" source="kEBG433Z0BsSJDvUKMlg-7" target="kEBG433Z0BsSJDvUKMlg-9">
          <mxGeometry relative="1" as="geometry" />
        </mxCell>
        <mxCell id="kEBG433Z0BsSJDvUKMlg-7" value="&amp;nbsp;Pre-training&amp;nbsp; and&amp;nbsp; extracting feature&amp;nbsp;" style="rounded=0;whiteSpace=wrap;html=1;" vertex="1" parent="1">
          <mxGeometry x="440" y="250" width="120" height="40" as="geometry" />
        </mxCell>
        <mxCell id="kEBG433Z0BsSJDvUKMlg-14" style="edgeStyle=orthogonalEdgeStyle;rounded=0;orthogonalLoop=1;jettySize=auto;html=1;exitX=0.5;exitY=1;exitDx=0;exitDy=0;entryX=0.5;entryY=0;entryDx=0;entryDy=0;" edge="1" parent="1" source="kEBG433Z0BsSJDvUKMlg-8" target="kEBG433Z0BsSJDvUKMlg-12">
          <mxGeometry relative="1" as="geometry" />
        </mxCell>
        <mxCell id="kEBG433Z0BsSJDvUKMlg-8" value="Further training in BiLSTM" style="rounded=0;whiteSpace=wrap;html=1;" vertex="1" parent="1">
          <mxGeometry x="200" y="340" width="120" height="40" as="geometry" />
        </mxCell>
        <mxCell id="kEBG433Z0BsSJDvUKMlg-15" style="edgeStyle=orthogonalEdgeStyle;rounded=0;orthogonalLoop=1;jettySize=auto;html=1;exitX=0.5;exitY=1;exitDx=0;exitDy=0;entryX=0.5;entryY=0;entryDx=0;entryDy=0;" edge="1" parent="1" source="kEBG433Z0BsSJDvUKMlg-9" target="kEBG433Z0BsSJDvUKMlg-12">
          <mxGeometry relative="1" as="geometry">
            <mxPoint x="380" y="420" as="targetPoint" />
          </mxGeometry>
        </mxCell>
        <mxCell id="kEBG433Z0BsSJDvUKMlg-9" value="Further training in BiLSTM" style="rounded=0;whiteSpace=wrap;html=1;" vertex="1" parent="1">
          <mxGeometry x="440" y="340" width="120" height="40" as="geometry" />
        </mxCell>
        <mxCell id="kEBG433Z0BsSJDvUKMlg-16" style="edgeStyle=orthogonalEdgeStyle;rounded=0;orthogonalLoop=1;jettySize=auto;html=1;exitX=0.5;exitY=1;exitDx=0;exitDy=0;" edge="1" parent="1" source="kEBG433Z0BsSJDvUKMlg-12" target="kEBG433Z0BsSJDvUKMlg-13">
          <mxGeometry relative="1" as="geometry" />
        </mxCell>
        <mxCell id="kEBG433Z0BsSJDvUKMlg-12" value="Attention" style="rounded=0;whiteSpace=wrap;html=1;" vertex="1" parent="1">
          <mxGeometry x="320" y="430" width="120" height="40" as="geometry" />
        </mxCell>
        <mxCell id="kEBG433Z0BsSJDvUKMlg-21" style="edgeStyle=orthogonalEdgeStyle;rounded=0;orthogonalLoop=1;jettySize=auto;html=1;exitX=0.5;exitY=1;exitDx=0;exitDy=0;fontSize=13;" edge="1" parent="1" source="kEBG433Z0BsSJDvUKMlg-13" target="kEBG433Z0BsSJDvUKMlg-18">
          <mxGeometry relative="1" as="geometry" />
        </mxCell>
        <mxCell id="kEBG433Z0BsSJDvUKMlg-23" style="edgeStyle=orthogonalEdgeStyle;rounded=0;orthogonalLoop=1;jettySize=auto;html=1;exitX=0.5;exitY=1;exitDx=0;exitDy=0;fontSize=13;entryX=0.5;entryY=0;entryDx=0;entryDy=0;" edge="1" parent="1" source="kEBG433Z0BsSJDvUKMlg-13" target="kEBG433Z0BsSJDvUKMlg-20">
          <mxGeometry relative="1" as="geometry">
            <mxPoint x="410" y="570" as="targetPoint" />
          </mxGeometry>
        </mxCell>
        <mxCell id="kEBG433Z0BsSJDvUKMlg-13" value="&lt;span style=&quot;color: rgb(34 , 34 , 34) ; font-family: &amp;#34;arial&amp;#34; , sans-serif ; font-size: 13px ; background-color: rgb(255 , 255 , 255)&quot;&gt;Hidden layer&lt;/span&gt;" style="rounded=0;whiteSpace=wrap;html=1;" vertex="1" parent="1">
          <mxGeometry x="290" y="500" width="180" height="30" as="geometry" />
        </mxCell>
        <mxCell id="kEBG433Z0BsSJDvUKMlg-26" style="edgeStyle=orthogonalEdgeStyle;rounded=0;orthogonalLoop=1;jettySize=auto;html=1;exitX=0.5;exitY=1;exitDx=0;exitDy=0;entryX=0.5;entryY=0;entryDx=0;entryDy=0;fontSize=13;" edge="1" parent="1" source="kEBG433Z0BsSJDvUKMlg-18" target="kEBG433Z0BsSJDvUKMlg-24">
          <mxGeometry relative="1" as="geometry" />
        </mxCell>
        <mxCell id="kEBG433Z0BsSJDvUKMlg-18" value="&lt;span style=&quot;color: rgb(51 , 51 , 51) ; font-family: &amp;#34;arial&amp;#34; , sans-serif ; background-color: rgb(255 , 255 , 255)&quot;&gt;&lt;font style=&quot;font-size: 13px&quot;&gt;After CRF layer constraints&lt;/font&gt;&lt;/span&gt;" style="rounded=0;whiteSpace=wrap;html=1;" vertex="1" parent="1">
          <mxGeometry x="200" y="590" width="120" height="40" as="geometry" />
        </mxCell>
        <mxCell id="kEBG433Z0BsSJDvUKMlg-27" style="edgeStyle=orthogonalEdgeStyle;rounded=0;orthogonalLoop=1;jettySize=auto;html=1;exitX=0.5;exitY=1;exitDx=0;exitDy=0;fontSize=13;" edge="1" parent="1" source="kEBG433Z0BsSJDvUKMlg-20" target="kEBG433Z0BsSJDvUKMlg-25">
          <mxGeometry relative="1" as="geometry" />
        </mxCell>
        <mxCell id="kEBG433Z0BsSJDvUKMlg-20" value="&lt;span style=&quot;color: rgb(51 , 51 , 51) ; font-family: &amp;#34;arial&amp;#34; , sans-serif ; background-color: rgb(255 , 255 , 255)&quot;&gt;&lt;font style=&quot;font-size: 13px&quot;&gt;After CRF layer constraints&lt;/font&gt;&lt;/span&gt;" style="rounded=0;whiteSpace=wrap;html=1;" vertex="1" parent="1">
          <mxGeometry x="440" y="590" width="120" height="40" as="geometry" />
        </mxCell>
        <mxCell id="kEBG433Z0BsSJDvUKMlg-24" value="The result on task 1" style="rounded=0;whiteSpace=wrap;html=1;fontSize=13;" vertex="1" parent="1">
          <mxGeometry x="200" y="670" width="120" height="40" as="geometry" />
        </mxCell>
        <mxCell id="kEBG433Z0BsSJDvUKMlg-25" value="The result on task 2" style="rounded=0;whiteSpace=wrap;html=1;fontSize=13;" vertex="1" parent="1">
          <mxGeometry x="440" y="670" width="120" height="40" as="geometry" />
        </mxCell>
      </root>
    </mxGraphModel>
  </diagram>
</mxfile>
